<svg xmlns="http://www.w3.org/2000/svg" viewBox="0 0 840 320" width="840" height="320" role="img" aria-labelledby="t d">
<title id="t">A metro ticket, start to finish</title>
<desc id="d">An illustrated self-service kiosk cycles through three steps. 1, Choose: QR ticket or metro card recharge. 2, Pay: UPI, card or cash. 3, Collect: a printed QR ticket, ready to scan.</desc>
<rect width="840" height="320" rx="18" fill="#0c0e12"/>
<g transform="translate(34 14) scale(.65)"><defs><clipPath id="slot"><rect x="0" y="366" width="360" height="90"/></clipPath></defs>
<ellipse cx="180" cy="438" rx="128" ry="8" fill="#ece7dc" opacity=".10"/>
<rect x="66" y="16" width="228" height="418" rx="20" fill="#171b22" stroke="#8d8a82" stroke-opacity=".45" stroke-width="1.5"/>
<circle cx="180" cy="28" r="2.5" fill="#8d8a82"/>
<rect x="86" y="40" width="188" height="186" rx="10" fill="#06080b"/>
<g opacity="1"><text x="106" y="86" font-family="'Iowan Old Style','Palatino Linotype',Palatino,Georgia,'Times New Roman',serif" font-size="21" font-weight="600" fill="#ece7dc">Where to?</text><rect x="106" y="108" width="148" height="38" rx="8" fill="none" stroke="#ff6a3d" stroke-width="1.6"/><text x="180" y="132" text-anchor="middle" font-family="ui-monospace,SFMono-Regular,Menlo,Consolas,'Liberation Mono',monospace" font-size="14" fill="#ece7dc">QR ticket</text><rect x="106" y="156" width="148" height="38" rx="8" fill="none" stroke="#8d8a82" stroke-width="1.6"/><text x="180" y="180" text-anchor="middle" font-family="ui-monospace,SFMono-Regular,Menlo,Consolas,'Liberation Mono',monospace" font-size="14" fill="#ece7dc">Card recharge</text><circle cx="228" cy="127" r="4" fill="#ff6a3d" opacity="0"><animate attributeName="opacity" values="0;0;.9;0;0" keyTimes="0;.20;.24;.30;1" dur="10s" repeatCount="indefinite"/><animate attributeName="r" values="4;4;16;16" keyTimes="0;.20;.30;1" dur="10s" repeatCount="indefinite"/></circle><animate attributeName="opacity" values="1;1;0;0;1" keyTimes="0;.30;.33;.96;1" dur="10s" repeatCount="indefinite"/></g>
<g opacity="0"><text x="106" y="86" font-family="'Iowan Old Style','Palatino Linotype',Palatino,Georgia,'Times New Roman',serif" font-size="21" font-weight="600" fill="#ece7dc">Pay</text><rect x="106" y="112" width="46" height="34" rx="7" fill="#ff6a3d" stroke="#ff6a3d" stroke-width="1.6"/><text x="129" y="134" text-anchor="middle" font-family="ui-monospace,SFMono-Regular,Menlo,Consolas,'Liberation Mono',monospace" font-size="13" fill="#06080b">UPI</text><rect x="157" y="112" width="46" height="34" rx="7" fill="none" stroke="#8d8a82" stroke-width="1.6"/><text x="180" y="134" text-anchor="middle" font-family="ui-monospace,SFMono-Regular,Menlo,Consolas,'Liberation Mono',monospace" font-size="13" fill="#ece7dc">Card</text><rect x="208" y="112" width="46" height="34" rx="7" fill="none" stroke="#8d8a82" stroke-width="1.6"/><text x="231" y="134" text-anchor="middle" font-family="ui-monospace,SFMono-Regular,Menlo,Consolas,'Liberation Mono',monospace" font-size="13" fill="#ece7dc">Cash</text><rect x="106" y="166" width="148" height="6" rx="3" fill="#8d8a82" opacity=".35"/><rect x="106" y="166" width="148" height="6" rx="3" fill="#ff6a3d"><animate attributeName="width" values="0;0;148;148" keyTimes="0;.36;.58;1" dur="10s" repeatCount="indefinite"/></rect><text x="106" y="196" font-family="ui-monospace,SFMono-Regular,Menlo,Consolas,'Liberation Mono',monospace" font-size="12" fill="#8d8a82">Waiting for payment</text><animate attributeName="opacity" values="0;0;1;1;0;0" keyTimes="0;.30;.33;.60;.63;1" dur="10s" repeatCount="indefinite"/></g>
<g opacity="0"><text x="106" y="86" font-family="'Iowan Old Style','Palatino Linotype',Palatino,Georgia,'Times New Roman',serif" font-size="21" font-weight="600" fill="#ece7dc">Done</text><g fill="#ece7dc"><rect x="106" y="104" width="8" height="8"/><rect x="114" y="104" width="8" height="8"/><rect x="122" y="104" width="8" height="8"/><rect x="154" y="104" width="8" height="8"/><rect x="162" y="104" width="8" height="8"/><rect x="170" y="104" width="8" height="8"/><rect x="106" y="112" width="8" height="8"/><rect x="122" y="112" width="8" height="8"/><rect x="154" y="112" width="8" height="8"/><rect x="170" y="112" width="8" height="8"/><rect x="106" y="120" width="8" height="8"/><rect x="114" y="120" width="8" height="8"/><rect x="122" y="120" width="8" height="8"/><rect x="130" y="120" width="8" height="8"/><rect x="138" y="120" width="8" height="8"/><rect x="146" y="120" width="8" height="8"/><rect x="154" y="120" width="8" height="8"/><rect x="162" y="120" width="8" height="8"/><rect x="170" y="120" width="8" height="8"/><rect x="114" y="128" width="8" height="8"/><rect x="154" y="128" width="8" height="8"/><rect x="162" y="128" width="8" height="8"/><rect x="170" y="128" width="8" height="8"/><rect x="106" y="136" width="8" height="8"/><rect x="130" y="136" width="8" height="8"/><rect x="138" y="136" width="8" height="8"/><rect x="146" y="136" width="8" height="8"/><rect x="154" y="136" width="8" height="8"/><rect x="170" y="136" width="8" height="8"/><rect x="106" y="144" width="8" height="8"/><rect x="114" y="144" width="8" height="8"/><rect x="146" y="144" width="8" height="8"/><rect x="154" y="144" width="8" height="8"/><rect x="162" y="144" width="8" height="8"/><rect x="106" y="152" width="8" height="8"/><rect x="114" y="152" width="8" height="8"/><rect x="122" y="152" width="8" height="8"/><rect x="130" y="152" width="8" height="8"/><rect x="138" y="152" width="8" height="8"/><rect x="146" y="152" width="8" height="8"/><rect x="154" y="152" width="8" height="8"/><rect x="162" y="152" width="8" height="8"/><rect x="106" y="160" width="8" height="8"/><rect x="122" y="160" width="8" height="8"/><rect x="130" y="160" width="8" height="8"/><rect x="162" y="160" width="8" height="8"/><rect x="106" y="168" width="8" height="8"/><rect x="114" y="168" width="8" height="8"/><rect x="122" y="168" width="8" height="8"/><rect x="138" y="168" width="8" height="8"/><rect x="154" y="168" width="8" height="8"/></g><text x="190" y="124" font-family="ui-monospace,SFMono-Regular,Menlo,Consolas,'Liberation Mono',monospace" font-size="12" fill="#8d8a82">Collect</text><text x="190" y="142" font-family="ui-monospace,SFMono-Regular,Menlo,Consolas,'Liberation Mono',monospace" font-size="12" fill="#8d8a82">your</text><text x="190" y="160" font-family="ui-monospace,SFMono-Regular,Menlo,Consolas,'Liberation Mono',monospace" font-size="12" fill="#8d8a82">ticket</text><path d="M190 178 l7 7 l14 -16" fill="none" stroke="#ff6a3d" stroke-width="3" stroke-linecap="round" stroke-linejoin="round"/><animate attributeName="opacity" values="0;0;1;1;0;0" keyTimes="0;.60;.63;.92;.95;1" dur="10s" repeatCount="indefinite"/></g>
<rect x="100" y="252" width="84" height="56" rx="8" fill="#0c0e12" stroke="#8d8a82" stroke-opacity=".4"/>
<rect x="114" y="270" width="56" height="6" rx="3" fill="#ece7dc" opacity=".55"/>
<text x="142" y="298" text-anchor="middle" font-family="ui-monospace,SFMono-Regular,Menlo,Consolas,'Liberation Mono',monospace" font-size="10" fill="#8d8a82">card</text>
<rect x="198" y="252" width="62" height="56" rx="8" fill="#0c0e12" stroke="#8d8a82" stroke-opacity=".4"/>
<rect x="212" y="262" width="34" height="22" rx="3" fill="#ff6a3d" opacity=".25">
  <animate attributeName="opacity" values=".25;.25;.9;.25;.25" keyTimes="0;.40;.48;.58;1" dur="10s" repeatCount="indefinite"/></rect>
<text x="229" y="298" text-anchor="middle" font-family="ui-monospace,SFMono-Regular,Menlo,Consolas,'Liberation Mono',monospace" font-size="10" fill="#8d8a82">scan</text>
<text x="180" y="342" text-anchor="middle" font-family="ui-monospace,SFMono-Regular,Menlo,Consolas,'Liberation Mono',monospace" font-size="10" fill="#8d8a82">tickets</text>
<g clip-path="url(#slot)">
  <g opacity="0">
    <rect x="132" y="364" width="96" height="56" rx="4" fill="#f7f3e9" stroke="#8d8a82" stroke-opacity=".5"/>
    <g fill="#15171a"><rect x="140" y="374" width="4" height="4"/><rect x="144" y="374" width="4" height="4"/><rect x="148" y="374" width="4" height="4"/><rect x="156" y="374" width="4" height="4"/><rect x="160" y="374" width="4" height="4"/><rect x="164" y="374" width="4" height="4"/><rect x="168" y="374" width="4" height="4"/><rect x="172" y="374" width="4" height="4"/><rect x="140" y="378" width="4" height="4"/><rect x="148" y="378" width="4" height="4"/><rect x="156" y="378" width="4" height="4"/><rect x="160" y="378" width="4" height="4"/><rect x="164" y="378" width="4" height="4"/><rect x="172" y="378" width="4" height="4"/><rect x="140" y="382" width="4" height="4"/><rect x="144" y="382" width="4" height="4"/><rect x="148" y="382" width="4" height="4"/><rect x="156" y="382" width="4" height="4"/><rect x="160" y="382" width="4" height="4"/><rect x="164" y="382" width="4" height="4"/><rect x="168" y="382" width="4" height="4"/><rect x="172" y="382" width="4" height="4"/><rect x="140" y="386" width="4" height="4"/><rect x="156" y="386" width="4" height="4"/><rect x="160" y="386" width="4" height="4"/><rect x="168" y="386" width="4" height="4"/><rect x="172" y="386" width="4" height="4"/><rect x="140" y="390" width="4" height="4"/><rect x="144" y="390" width="4" height="4"/><rect x="156" y="390" width="4" height="4"/><rect x="148" y="394" width="4" height="4"/><rect x="152" y="394" width="4" height="4"/><rect x="156" y="394" width="4" height="4"/><rect x="164" y="394" width="4" height="4"/><rect x="140" y="398" width="4" height="4"/><rect x="144" y="398" width="4" height="4"/><rect x="148" y="398" width="4" height="4"/><rect x="152" y="398" width="4" height="4"/><rect x="156" y="398" width="4" height="4"/><rect x="160" y="398" width="4" height="4"/><rect x="164" y="398" width="4" height="4"/><rect x="140" y="402" width="4" height="4"/><rect x="148" y="402" width="4" height="4"/><rect x="160" y="402" width="4" height="4"/><rect x="168" y="402" width="4" height="4"/><rect x="140" y="406" width="4" height="4"/><rect x="144" y="406" width="4" height="4"/><rect x="148" y="406" width="4" height="4"/><rect x="152" y="406" width="4" height="4"/><rect x="156" y="406" width="4" height="4"/><rect x="168" y="406" width="4" height="4"/></g>
    <rect x="184" y="378" width="34" height="4" fill="#15171a" opacity=".7"/>
    <rect x="184" y="388" width="26" height="4" fill="#15171a" opacity=".4"/>
    <rect x="184" y="398" width="30" height="4" fill="#15171a" opacity=".4"/>
    <animateTransform attributeName="transform" type="translate" values="0 -60;0 -60;0 0;0 0" keyTimes="0;.68;.80;1" dur="10s" repeatCount="indefinite"/>
    <animate attributeName="opacity" values="0;0;1;1;0;0" keyTimes="0;.66;.67;.90;.94;1" dur="10s" repeatCount="indefinite"/>
  </g>
</g>
<rect x="120" y="354" width="120" height="12" rx="6" fill="#06080b"/>
</g>
<text x="335" y="52" font-family="ui-monospace,SFMono-Regular,Menlo,Consolas,'Liberation Mono',monospace" font-size="14" fill="#ff6a3d">The kind of flow I build: a metro ticket, start to finish</text>
<g opacity="1"><circle cx="352" cy="104" r="17" fill="none" stroke="#ff6a3d" stroke-width="2"/><text x="352" y="110" text-anchor="middle" font-family="ui-monospace,SFMono-Regular,Menlo,Consolas,'Liberation Mono',monospace" font-size="16" fill="#ff6a3d">1</text><text x="388" y="106" font-family="'Iowan Old Style','Palatino Linotype',Palatino,Georgia,'Times New Roman',serif" font-size="25" font-weight="600" fill="#ece7dc">Choose</text><text x="388" y="128" font-family="ui-monospace,SFMono-Regular,Menlo,Consolas,'Liberation Mono',monospace" font-size="14" fill="#8d8a82">QR ticket or metro card recharge</text><animate attributeName="opacity" values="1;1;.45;.45;1" keyTimes="0;.30;.33;.96;1" dur="10s" repeatCount="indefinite"/></g>
<g opacity="0.45"><circle cx="352" cy="174" r="17" fill="none" stroke="#ff6a3d" stroke-width="2"/><text x="352" y="180" text-anchor="middle" font-family="ui-monospace,SFMono-Regular,Menlo,Consolas,'Liberation Mono',monospace" font-size="16" fill="#ff6a3d">2</text><text x="388" y="176" font-family="'Iowan Old Style','Palatino Linotype',Palatino,Georgia,'Times New Roman',serif" font-size="25" font-weight="600" fill="#ece7dc">Pay</text><text x="388" y="198" font-family="ui-monospace,SFMono-Regular,Menlo,Consolas,'Liberation Mono',monospace" font-size="14" fill="#8d8a82">UPI, card or cash</text><animate attributeName="opacity" values=".45;.45;1;1;.45;.45" keyTimes="0;.30;.33;.60;.63;1" dur="10s" repeatCount="indefinite"/></g>
<g opacity="0.45"><circle cx="352" cy="244" r="17" fill="none" stroke="#ff6a3d" stroke-width="2"/><text x="352" y="250" text-anchor="middle" font-family="ui-monospace,SFMono-Regular,Menlo,Consolas,'Liberation Mono',monospace" font-size="16" fill="#ff6a3d">3</text><text x="388" y="246" font-family="'Iowan Old Style','Palatino Linotype',Palatino,Georgia,'Times New Roman',serif" font-size="25" font-weight="600" fill="#ece7dc">Collect</text><text x="388" y="268" font-family="ui-monospace,SFMono-Regular,Menlo,Consolas,'Liberation Mono',monospace" font-size="14" fill="#8d8a82">A printed QR ticket, ready to scan</text><animate attributeName="opacity" values=".45;.45;1;1;.45;.45" keyTimes="0;.60;.63;.92;.95;1" dur="10s" repeatCount="indefinite"/></g>
</svg>
